<?xml version="1.0" encoding="UTF-8"?><svg id="a" xmlns="http://www.w3.org/2000/svg" viewBox="0 0 370.553 22.287"><path d="M14.069,11.306c-1.038,2.097-2.912,3.252-5.276,3.252-3.28,0-5.849-2.624-5.849-5.973s2.569-5.974,5.849-5.974c2.161,0,4.073,1.135,5.117,3.035l.077.141,1.638-.953-.078-.135c-1.398-2.41-3.985-3.906-6.754-3.906C4.496.792,1,4.288,1,8.585s3.496,7.792,7.792,7.792c2.98,0,5.582-1.569,6.961-4.196l.073-.139-1.687-.878-.071.144Z" fill="#fff"/><rect x="18.026" y=".994" width="1.902" height="15.178" fill="#fff"/><path d="M28.122,5.475c-3.045,0-5.431,2.395-5.431,5.451s2.385,5.45,5.431,5.45,5.451-2.394,5.451-5.45-2.395-5.451-5.451-5.451ZM31.67,10.926c0,2.083-1.559,3.713-3.549,3.713-1.979,0-3.528-1.631-3.528-3.713s1.55-3.712,3.528-3.712c1.99,0,3.549,1.63,3.549,3.712Z" fill="#fff"/><path d="M40.324,9.981c-.161-.04-.318-.077-.471-.113-1.419-.339-2.159-.551-2.159-1.323,0-.87.81-1.432,2.062-1.432,1.175,0,1.968.343,2.65,1.146l.1.117,1.448-1.177-.111-.123c-.971-1.075-2.346-1.621-4.087-1.621-2.549,0-3.924,1.603-3.924,3.11,0,2.195,2.157,2.705,3.584,3.042l.364.083c1.226.276,2.384.537,2.384,1.434,0,.946-.897,1.557-2.286,1.557-1.275,0-2.237-.461-3.117-1.496l-.104-.122-1.478,1.311.101.117c1.083,1.251,2.603,1.885,4.515,1.885,2.906,0,4.23-1.686,4.23-3.253,0-2.299-2.23-2.807-3.703-3.143Z" fill="#fff"/><path d="M51.534,5.475c-3.096,0-5.431,2.378-5.431,5.533s2.267,5.369,5.512,5.369c2.229,0,3.938-1.008,4.944-2.915l.075-.143-1.645-.809-.07.137c-.662,1.298-1.835,2.012-3.304,2.012-1.909,0-3.387-1.252-3.651-3.067h8.939v-.83c0-3.113-2.208-5.288-5.37-5.288ZM48.073,9.833c.461-1.587,1.829-2.64,3.461-2.64,1.822,0,3.086.982,3.417,2.64h-6.878Z" fill="#fff"/><path d="M66.378,2.29l-1.902,1.051v2.338h-1.752v1.739h1.752v4.709c0,3.138.88,4.045,3.924,4.045h.381v-1.798h-.157c-1.952,0-2.246-.296-2.246-2.267v-4.689h2.402v-1.739h-2.402v-3.389Z" fill="#fff"/><path d="M76.501,5.475c-1.331,0-2.51.503-3.304,1.396V.994h-1.862v15.178h1.882v-5.797c0-1.802,1.315-3.161,3.06-3.161,1.842,0,2.898,1.145,2.898,3.141v5.817h1.902v-5.817c0-3.01-1.754-4.88-4.577-4.88Z" fill="#fff"/><path d="M89.18,5.475c-3.096,0-5.431,2.378-5.431,5.533s2.267,5.369,5.513,5.369c2.229,0,3.938-1.008,4.943-2.915l.075-.143-1.648-.809-.07.138c-.659,1.297-1.831,2.012-3.301,2.012-1.909,0-3.387-1.252-3.651-3.067h8.939v-.83c0-3.113-2.208-5.288-5.37-5.288ZM85.718,9.833c.462-1.587,1.83-2.64,3.461-2.64,1.821,0,3.086.982,3.417,2.64h-6.878Z" fill="#fff"/><path d="M109.614,7.065c-.992-1.095-2.476-1.59-3.59-1.59-3.061,0-5.37,2.344-5.37,5.451,0,3.056,2.359,5.45,5.37,5.45,1.138,0,2.634-.498,3.61-1.599v1.095c0,2.203-1.274,3.572-3.325,3.572-1.539,0-2.579-.618-3.092-1.837l-.056-.133-1.848.603.067.157c.812,1.901,2.516,2.906,4.928,2.906,3.15,0,5.186-2.084,5.186-5.309V5.679h-1.882v1.386ZM109.757,10.926c0,2.083-1.604,3.713-3.651,3.713-1.99,0-3.549-1.631-3.549-3.713s1.559-3.712,3.549-3.712c2.047,0,3.651,1.63,3.651,3.712Z" fill="#fff"/><path d="M123.228,7.065c-.992-1.095-2.476-1.59-3.59-1.59-3.061,0-5.37,2.344-5.37,5.451,0,3.056,2.359,5.45,5.37,5.45,1.122,0,2.607-.493,3.59-1.585v1.381h1.882V5.679h-1.882v1.386ZM123.371,10.926c0,2.083-1.604,3.713-3.651,3.713-1.99,0-3.549-1.631-3.549-3.713s1.559-3.712,3.549-3.712c2.047,0,3.651,1.63,3.651,3.712Z" fill="#fff"/><path d="M133.765,5.475c-1.127,0-2.613.493-3.59,1.584v-1.38h-1.821v15.176h1.841v-5.94c.835.922,2.136,1.461,3.569,1.461,3.011,0,5.37-2.394,5.37-5.45,0-3.107-2.309-5.451-5.37-5.451ZM137.232,10.926c0,2.083-1.559,3.713-3.549,3.713-2.047,0-3.651-1.631-3.651-3.713s1.604-3.712,3.651-3.712c1.99,0,3.549,1.63,3.549,3.712Z" fill="#fff"/><path d="M146.557,1.075c-.784,0-1.399.615-1.399,1.399,0,.809.602,1.419,1.399,1.419.809,0,1.419-.61,1.419-1.419,0-.797-.61-1.399-1.419-1.399Z" fill="#fff"/><rect x="145.607" y="5.679" width="1.902" height="10.493" fill="#fff"/><path d="M155.889,5.475c-1.335,0-2.514.509-3.304,1.411v-1.207h-1.862v10.493h1.882v-5.797c0-1.802,1.315-3.161,3.06-3.161,1.842,0,2.898,1.145,2.898,3.141v5.817h1.902v-5.817c0-3.01-1.754-4.88-4.577-4.88Z" fill="#fff"/><path d="M171.404,9.981c-.161-.04-.318-.077-.471-.113-1.419-.339-2.159-.551-2.159-1.323,0-.87.81-1.432,2.062-1.432,1.175,0,1.968.343,2.65,1.146l.1.117,1.448-1.177-.111-.123c-.971-1.075-2.346-1.621-4.087-1.621-2.549,0-3.924,1.603-3.924,3.11,0,2.195,2.157,2.705,3.584,3.042l.367.083c1.225.276,2.381.537,2.381,1.433,0,.946-.897,1.557-2.286,1.557-1.275,0-2.236-.461-3.117-1.496l-.104-.122-1.478,1.311.101.117c1.083,1.251,2.603,1.885,4.516,1.885,2.906,0,4.229-1.686,4.229-3.253,0-2.299-2.23-2.807-3.703-3.143Z" fill="#fff"/><polygon points="182.154 13.219 178.799 5.771 178.757 5.679 176.683 5.679 181.152 15.426 178.784 20.875 180.796 20.875 187.345 5.679 185.292 5.679 182.154 13.219" fill="#fff"/><path d="M193.433,9.981c-.161-.04-.318-.077-.471-.113-1.419-.339-2.16-.551-2.16-1.323,0-.87.81-1.432,2.062-1.432,1.175,0,1.967.343,2.65,1.146l.1.117,1.448-1.177-.111-.123c-.972-1.075-2.347-1.621-4.087-1.621-2.549,0-3.924,1.603-3.924,3.11,0,2.196,2.157,2.705,3.584,3.042l.367.083c1.225.276,2.381.537,2.381,1.433,0,.946-.897,1.557-2.287,1.557-1.275,0-2.236-.461-3.117-1.496l-.104-.122-1.478,1.311.101.117c1.083,1.251,2.603,1.885,4.516,1.885,2.906,0,4.229-1.686,4.229-3.253,0-2.299-2.229-2.807-3.702-3.143Z" fill="#fff"/><path d="M202.71,2.29l-1.902,1.051v2.338h-1.752v1.739h1.752v4.709c0,3.138.88,4.045,3.924,4.045h.381v-1.798h-.157c-1.952,0-2.246-.296-2.246-2.267v-4.689h2.402v-1.739h-2.402v-3.389Z" fill="#fff"/><path d="M212.281,5.475c-3.096,0-5.431,2.378-5.431,5.533s2.267,5.369,5.512,5.369c2.229,0,3.938-1.008,4.944-2.915l.075-.143-1.646-.809-.07.137c-.661,1.298-1.834,2.012-3.303,2.012-1.909,0-3.387-1.252-3.651-3.067h8.939v-.83c0-3.113-2.208-5.288-5.37-5.288ZM208.819,9.833c.462-1.587,1.83-2.64,3.461-2.64,1.822,0,3.086.982,3.417,2.64h-6.878Z" fill="#fff"/><path d="M232.686,5.475c-1.577,0-2.93.707-3.68,1.905-.688-1.215-1.994-1.905-3.632-1.905-1.276,0-2.36.455-3.1,1.29v-1.086h-1.862v10.493h1.882v-5.899c0-1.871,1.161-3.08,2.958-3.08,1.637,0,2.694,1.001,2.694,2.552v6.427h1.882v-6.08c0-1.734,1.14-2.898,2.837-2.898,1.71,0,2.814,1.074,2.814,2.735v6.243h1.902v-6.141c0-2.811-1.799-4.556-4.696-4.556Z" fill="#fff"/><path d="M244.662,9.981c-.161-.04-.318-.077-.47-.113-1.419-.338-2.16-.551-2.16-1.323,0-.87.81-1.432,2.062-1.432,1.175,0,1.968.343,2.65,1.146l.1.117,1.448-1.177-.111-.123c-.971-1.075-2.346-1.621-4.087-1.621-2.548,0-3.923,1.603-3.923,3.11,0,2.196,2.157,2.705,3.584,3.042l.365.083c1.226.276,2.383.537,2.383,1.434,0,.946-.897,1.557-2.287,1.557-1.275,0-2.236-.461-3.117-1.496l-.104-.122-1.478,1.311.101.117c1.083,1.251,2.603,1.885,4.516,1.885,2.906,0,4.229-1.686,4.229-3.253,0-2.299-2.229-2.807-3.702-3.143Z" fill="#fff"/><path d="M255.622,1.075c-.784,0-1.399.615-1.399,1.399,0,.809.602,1.419,1.399,1.419.809,0,1.419-.61,1.419-1.419,0-.797-.61-1.399-1.419-1.399Z" fill="#fff"/><rect x="254.671" y="5.679" width="1.902" height="10.493" fill="#fff"/><path d="M264.956,5.475c-1.335,0-2.515.509-3.304,1.411v-1.207h-1.861v10.493h1.882v-5.797c0-1.802,1.315-3.161,3.059-3.161,1.842,0,2.899,1.145,2.899,3.141v5.817h1.902v-5.817c0-3.01-1.754-4.88-4.577-4.88Z" fill="#fff"/><path d="M275.181,2.29l-1.902,1.051v2.338h-1.752v1.739h1.752v4.709c0,3.138.88,4.045,3.923,4.045h.381v-1.798h-.157c-1.952,0-2.246-.296-2.246-2.267v-4.689h2.402v-1.739h-2.402v-3.389Z" fill="#fff"/><path d="M284.751,5.475c-3.096,0-5.431,2.378-5.431,5.533s2.267,5.369,5.513,5.369c2.229,0,3.938-1.008,4.943-2.915l.075-.143-1.645-.809-.07.138c-.661,1.298-1.834,2.012-3.303,2.012-1.909,0-3.387-1.252-3.651-3.067h8.939v-.83c0-3.113-2.208-5.288-5.37-5.288ZM281.29,9.833c.462-1.587,1.83-2.64,3.461-2.64,1.821,0,3.086.982,3.417,2.64h-6.878Z" fill="#fff"/><path d="M301.366,7.065c-.992-1.095-2.475-1.59-3.59-1.59-3.061,0-5.37,2.344-5.37,5.451,0,3.056,2.359,5.45,5.37,5.45,1.138,0,2.634-.498,3.61-1.599v1.095c0,2.203-1.274,3.572-3.325,3.572-1.539,0-2.579-.618-3.092-1.837l-.056-.133-1.848.603.067.157c.812,1.901,2.516,2.906,4.928,2.906,3.15,0,5.186-2.084,5.186-5.309V5.679h-1.882v1.386ZM301.509,10.926c0,2.083-1.604,3.713-3.651,3.713-1.99,0-3.549-1.631-3.549-3.713s1.559-3.712,3.549-3.712c2.047,0,3.651,1.63,3.651,3.712Z" fill="#fff"/><path d="M308.387,6.929v-1.25h-1.882v10.493h1.902v-5.43c0-2.333.845-3.284,2.916-3.284h1.157v-1.78h-1.095c-1.297,0-2.323.43-2.998,1.25Z" fill="#fff"/><path d="M323.059,7.065c-.992-1.095-2.476-1.59-3.59-1.59-3.061,0-5.37,2.344-5.37,5.451,0,3.056,2.359,5.45,5.37,5.45,1.122,0,2.607-.493,3.59-1.585v1.381h1.882V5.679h-1.882v1.386ZM323.202,10.926c0,2.083-1.604,3.713-3.651,3.713-1.99,0-3.549-1.631-3.549-3.713s1.559-3.712,3.549-3.712c2.047,0,3.651,1.63,3.651,3.712Z" fill="#fff"/><path d="M330.886,2.29l-1.902,1.051v2.338h-1.752v1.739h1.752v4.709c0,3.138.88,4.045,3.924,4.045h.381v-1.798h-.157c-1.952,0-2.246-.296-2.246-2.267v-4.689h2.402v-1.739h-2.402v-3.389Z" fill="#fff"/><path d="M336.651,1.075c-.784,0-1.399.615-1.399,1.399,0,.809.602,1.419,1.399,1.419.809,0,1.419-.61,1.419-1.419,0-.797-.61-1.399-1.419-1.399Z" fill="#fff"/><rect x="335.701" y="5.679" width="1.902" height="10.493" fill="#fff"/><path d="M345.71,5.475c-3.045,0-5.431,2.395-5.431,5.451s2.386,5.45,5.431,5.45,5.451-2.394,5.451-5.45-2.395-5.451-5.451-5.451ZM349.259,10.926c0,2.083-1.559,3.713-3.549,3.713-1.979,0-3.529-1.631-3.529-3.713s1.55-3.712,3.529-3.712c1.99,0,3.549,1.63,3.549,3.712Z" fill="#fff"/><path d="M359.089,5.475c-1.335,0-2.515.509-3.304,1.411v-1.207h-1.861v10.493h1.882v-5.797c0-1.802,1.315-3.161,3.059-3.161,1.842,0,2.899,1.145,2.899,3.141v5.817h1.902v-5.817c0-3.01-1.754-4.88-4.577-4.88Z" fill="#fff"/><path d="M367.934,13.558c-.784,0-1.399.616-1.399,1.401,0,.808.602,1.417,1.399,1.417.809,0,1.419-.609,1.419-1.417,0-.812-.597-1.401-1.419-1.401Z" fill="#fff"/></svg>