<?xml version="1.0" encoding="UTF-8"?><svg id="a" xmlns="http://www.w3.org/2000/svg" viewBox="0 0 1366 310"><path d="M80.428,119.588L190.583,14.581h95.157l-118.723,111.007,135.856,168.868h-93.008l-95.575-120.439-33.863,32.147v88.292H5V14.581h75.428v105.007Z" fill="#fff"/><path d="M495.754,6c89.157,0,160.734,66.442,160.734,147.869,0,82.725-71.577,149.153-160.734,149.153s-159.004-66.428-159.004-149.153c0-81.427,69.861-147.869,159.004-147.869ZM495.754,240.445c46.295,0,82.725-39.43,82.725-86.576,0-46.281-36.43-84.86-82.725-84.86-45.862,0-81.427,38.579-81.427,84.86,0,47.146,35.565,86.576,81.427,86.576Z" fill="#fff"/><path d="M746.51,294.456V14.581h156.004c42.444,0,69.009,12.432,87.008,31.282,15.013,15.864,24.012,36.43,24.012,59.578,0,34.295-19.715,61.294-51.443,77.576l64.293,111.439h-84.86l-53.578-98.575h-66.428v98.575h-75.009ZM821.519,75.442v59.578h85.292c17.566,0,31.714-10.716,31.714-30.012,0-7.716-3-15.432-8.148-20.999-6.851-7.283-15.85-8.567-23.566-8.567h-85.292Z" fill="#fff"/><path d="M1286.991,182.165h-98.575v49.281h173.584v63.01h-248.593V14.581h239.161v62.996h-164.152v44.146h98.575v60.443Z" fill="#fff"/></svg>