<?xml version="1.0" encoding="UTF-8"?>
<svg id="a" xmlns="http://www.w3.org/2000/svg" viewBox="0 0 1200 1073.085">
    <path
        d="M231.068,182.85c-16.138,0-29.268,13.129-29.268,29.276s13.129,29.259,29.268,29.259,29.276-13.129,29.276-29.259-13.129-29.276-29.276-29.276Z"
        fill="#3c2415" />
    <path
        d="M1179.577,1064.709l-481.52-486.371-1.624-1.69,142.664-142.664V10.569l-313.531,313.543-.257-.648-.039-226.393H169.806c-29.537,0-57.037,8.658-80.123,23.426-41.59,26.482-69.26,72.994-69.26,125.957,0,9.506,1.018,29.707,8.148,50.078.34,1.018.679,2.037,1.188,3.055,2.377,5.432,4.754,10.525,7.469,15.617.34.51.679,1.018.849,1.528,5.942,10.863,12.69,21.134,20.499,30.471.942-3.368,2.234-6.66,3.707-9.83.757-1.63,1.689-3.183,2.666-4.689,1.001-1.544,2.076-3.038,3.188-4.504,4.323-5.701,9.708-10.59,15.818-14.314,9.187-5.597,19.572-8.676,30.341-8.676,13.125,0,26.018,4.552,36.241,12.781,10.084,8.12,17.306,19.567,20.195,32.195,1.819,7.953,1.546,16.552,1.441,24.664-.114,8.841.008,17.689.009,26.53.001.745.001,1.491.001,2.236v51.316l-.17,610.266,353.428-.509-.048-274.51,274.55,274.55h379.634ZM788.172,412.898L223.074,977.996v-45.207L788.172,367.691v45.207ZM788.172,295.678L223.074,860.776v-45.124L788.172,250.538v45.14ZM788.172,133.525v45L223.074,743.638v-45.007L788.172,133.525ZM114.296,254.263c-14.769,0-28.688,2.886-41.42,8.318-.169,0-.339.17-.339.17-.68-5.262-1.188-10.695-1.188-16.297,0-54.322,44.136-98.457,98.457-98.457h304.539l.038,194.406-.013,11.93.145,20.833-251.441,251.45v-.32l-.022.022.022-74.391v-189.548c-.379-59.769-49.088-108.117-108.778-108.117ZM474.515,1013.743v.434h-215.609l215.609-215.609v215.174ZM660.161,612.921l397.339,400.862h-236.47l-280.865-280.865,119.997-119.997Z"
        fill="#3c2415" />
</svg>